<svg width="102" height="102" viewBox="0 0 102 102" fill="none" xmlns="http://www.w3.org/2000/svg">
    <rect width="102" height="102" fill="#1A1A1A"/>
    <circle cx="36" cy="51" r="1.875" fill="#1A1A1A" stroke="white" stroke-width="1.25"/>
    <circle cx="43" cy="51" r="1.875" fill="#1A1A1A" stroke="white" stroke-width="1.25"/>
    <circle cx="36" cy="65" r="1.875" fill="#1A1A1A" stroke="white" stroke-width="1.25"/>
    <circle cx="43" cy="65" r="1.875" fill="#1A1A1A" stroke="white" stroke-width="1.25"/>
    <circle cx="36" cy="37" r="1.875" fill="#1A1A1A" stroke="white" stroke-width="1.25"/>
    <circle cx="43" cy="37" r="1.875" fill="#1A1A1A" stroke="white" stroke-width="1.25"/>
    <path d="M49 51H55.9323C55.9732 51 56.01 51.0249 56.0251 51.0629L57.8868 55.7171C57.9227 55.8067 58.0522 55.7985 58.0765 55.705L61.3957 42.9022C61.4221 42.8005 61.5673 42.8031 61.5901 42.9056L65.42 60.1401C65.4421 60.2396 65.5816 60.2461 65.6128 60.149L69.9065 46.7908C69.9361 46.6988 70.066 46.6981 70.0966 46.7898L71.4772 50.9316C71.4908 50.9725 71.529 51 71.5721 51H77" stroke="white" stroke-width="2.5" stroke-linecap="round"/>
    <circle cx="81.5835" cy="50.9492" r="1.25" fill="white"/>
    <path d="M67.5 65V70.5C67.5 71.6046 66.6046 72.5 65.5 72.5H31C29.8954 72.5 29 71.6046 29 70.5V58M67.5 37V32C67.5 30.8954 66.6046 30 65.5 30H31C29.8954 30 29 30.8954 29 32V43.5M29 43.5H54M29 43.5V58M29 58H54M49 37H62.5M49 65H62.5" stroke="white" stroke-width="2.5" stroke-linecap="round" stroke-linejoin="round"/>
</svg>
